<svg width="12" height="12" viewBox="0 0 12 12" fill="none" xmlns="http://www.w3.org/2000/svg">
<path d="M10.875 6C10.875 7.29293 10.3614 8.53291 9.44715 9.44715C8.53291 10.3614 7.29293 10.875 6 10.875C4.70707 10.875 3.46709 10.3614 2.55285 9.44715C1.63861 8.53291 1.125 7.29293 1.125 6C1.125 4.70707 1.63861 3.46709 2.55285 2.55285C3.46709 1.63861 4.70707 1.125 6 1.125C7.29293 1.125 8.53291 1.63861 9.44715 2.55285C10.3614 3.46709 10.875 4.70707 10.875 6ZM0 6C0 7.5913 0.632141 9.11742 1.75736 10.2426C2.88258 11.3679 4.4087 12 6 12C7.5913 12 9.11742 11.3679 10.2426 10.2426C11.3679 9.11742 12 7.5913 12 6C12 4.4087 11.3679 2.88258 10.2426 1.75736C9.11742 0.632141 7.5913 0 6 0C4.4087 0 2.88258 0.632141 1.75736 1.75736C0.632141 2.88258 0 4.4087 0 6ZM5.4375 2.8125V6C5.4375 6.1875 5.53125 6.36328 5.68828 6.46875L7.93828 7.96875C8.19609 8.14219 8.54531 8.07187 8.71875 7.81172C8.89219 7.55156 8.82187 7.20469 8.56172 7.03125L6.5625 5.7V2.8125C6.5625 2.50078 6.31172 2.25 6 2.25C5.68828 2.25 5.4375 2.50078 5.4375 2.8125Z" fill="#757575"/>
</svg>
