<svg width="14" height="14" viewBox="0 0 14 14" fill="none" xmlns="http://www.w3.org/2000/svg">
<path d="M13.5857 2.39091C14.1323 1.84429 14.1323 0.956583 13.5857 0.409964C13.039 -0.136655 12.1513 -0.136655 11.6047 0.409964L7 5.01905L2.39091 0.414337C1.84429 -0.132282 0.956583 -0.132282 0.409964 0.414337C-0.136655 0.960956 -0.136655 1.84866 0.409964 2.39528L5.01905 7L0.414337 11.6091C-0.132282 12.1557 -0.132282 13.0434 0.414337 13.59C0.960956 14.1367 1.84866 14.1367 2.39528 13.59L7 8.98095L11.6091 13.5857C12.1557 14.1323 13.0434 14.1323 13.59 13.5857C14.1367 13.039 14.1367 12.1513 13.59 11.6047L8.98095 7L13.5857 2.39091Z" fill="#878787"/>
</svg>
