<svg width="13" height="12" viewBox="0 0 13 12" fill="none" xmlns="http://www.w3.org/2000/svg">
<path d="M5.34913 0.274219C5.71561 -0.0914062 6.30995 -0.0914062 6.67878 0.274219L11.7531 5.33672C12.1195 5.70234 12.1195 6.29531 11.7531 6.66328L6.67878 11.7258C6.3123 12.0914 5.71795 12.0914 5.34913 11.7258L0.274857 6.66328C-0.0916188 6.29766 -0.0916188 5.70469 0.274857 5.33672L5.34913 0.274219ZM7.40703 3.48516C7.29897 3.37734 7.13687 3.34687 6.99827 3.40312C6.85967 3.45937 6.7657 3.59766 6.7657 3.75V5.0625H5.26221C4.43294 5.0625 3.75872 5.73516 3.75872 6.5625V7.6875C3.75872 7.99922 4.01009 8.25 4.32253 8.25C4.63497 8.25 4.88634 7.99922 4.88634 7.6875V6.5625C4.88634 6.35625 5.05548 6.1875 5.26221 6.1875H6.7657V7.5C6.7657 7.65234 6.85732 7.78828 6.99827 7.84687C7.13922 7.90547 7.30132 7.87266 7.40703 7.76484L9.28639 5.88984C9.43204 5.74453 9.43204 5.50547 9.28639 5.36016L7.40703 3.48516Z" fill="white"/>
</svg>
