<svg width="14" height="19" viewBox="0 0 14 19" fill="none" xmlns="http://www.w3.org/2000/svg">
<path d="M13.5 7.0107C13.5 7.71026 13.2627 8.59131 12.8435 9.58585C12.4278 10.5721 11.8501 11.6311 11.2076 12.6748C9.92309 14.7617 8.40374 16.7497 7.47372 17.9153C7.22549 18.224 6.77451 18.224 6.52628 17.9153C5.59626 16.7497 4.0769 14.7617 2.7924 12.6748C2.14994 11.6311 1.57221 10.5721 1.15647 9.58585C0.737257 8.59131 0.5 7.71026 0.5 7.0107C0.5 3.41563 3.41228 0.5 7 0.5C10.5877 0.5 13.5 3.41563 13.5 7.0107ZM9.00374 5.00498C8.47244 4.47287 7.75169 4.1738 7 4.1738C6.24831 4.1738 5.52755 4.47287 4.99626 5.00498C4.46499 5.53706 4.16667 6.25855 4.16667 7.0107C4.16667 7.76284 4.46499 8.48434 4.99626 9.01642C5.52755 9.54852 6.24831 9.84759 7 9.84759C7.75169 9.84759 8.47244 9.54852 9.00374 9.01642C9.53501 8.48434 9.83333 7.76284 9.83333 7.0107C9.83333 6.25855 9.53501 5.53706 9.00374 5.00498Z" stroke="#5B5B5B"/>
</svg>
