<svg width="15" height="12" viewBox="0 0 15 12" fill="none" xmlns="http://www.w3.org/2000/svg">
<path d="M0 1C0 0.446875 0.454855 0 1.01786 0H13.2321C13.7951 0 14.25 0.446875 14.25 1C14.25 1.55313 13.7951 2 13.2321 2H1.01786C0.454855 2 0 1.55313 0 1ZM0 6C0 5.44688 0.454855 5 1.01786 5H13.2321C13.7951 5 14.25 5.44688 14.25 6C14.25 6.55312 13.7951 7 13.2321 7H1.01786C0.454855 7 0 6.55312 0 6ZM14.25 11C14.25 11.5531 13.7951 12 13.2321 12H1.01786C0.454855 12 0 11.5531 0 11C0 10.4469 0.454855 10 1.01786 10H13.2321C13.7951 10 14.25 10.4469 14.25 11Z" fill="#757575"/>
</svg>
