<svg width="28" height="28" viewBox="0 0 28 28" fill="none" xmlns="http://www.w3.org/2000/svg">
<g clip-path="url(#clip0_84_76)">
<mask id="mask0_84_76" style="mask-type:luminance" maskUnits="userSpaceOnUse" x="0" y="0" width="28" height="28">
<path d="M28 0H0V28H28V0Z" fill="white"/>
</mask>
<g mask="url(#mask0_84_76)">
<path d="M23 5H6V22H23V5Z" fill="black"/>
<path d="M-3.99983 -2C-6.20608 -2 0.000266075 1.79375 0.000266075 4V24C0.000266075 26.2062 -13.2065 31.5 -11.0002 31.5H36.5C38.7062 31.5 28.0003 26.2062 28.0003 24V4C28.0003 1.79375 34.7065 -5 32.5003 -5L-3.99983 -2ZM12.0003 14H15.0003C16.1066 14 17.0003 13.1063 17.0003 12C17.0003 10.8937 16.1066 10 15.0003 10H12.0003V14ZM15.0003 18H12.0003V20C12.0003 21.1063 11.1066 22 10.0003 22C8.89402 22 8.00027 21.1063 8.00027 20V16V8.5C8.00027 7.11875 9.11902 6 10.5003 6H15.0003C18.3128 6 21.0003 8.6875 21.0003 12C21.0003 15.3125 18.3128 18 15.0003 18Z" fill="#FBDA37"/>
</g>
</g>
<defs>
<clipPath id="clip0_84_76">
<rect width="28" height="28" fill="white"/>
</clipPath>
</defs>
</svg>
