<svg width="28" height="28" viewBox="0 0 28 28" fill="none" xmlns="http://www.w3.org/2000/svg">
<g clip-path="url(#clip0_28_5)">
<mask id="mask0_28_5" style="mask-type:luminance" maskUnits="userSpaceOnUse" x="0" y="0" width="28" height="28">
<path d="M28 0H0V28H28V0Z" fill="white"/>
</mask>
<g mask="url(#mask0_28_5)">
<path d="M23 5H6V22H23V5Z" fill="white"/>
<path d="M4 0C1.79375 0 0 1.79375 0 4V24C0 26.2062 1.79375 28 4 28H24C26.2062 28 28 26.2062 28 24V4C28 1.79375 26.2062 0 24 0H4ZM12 14H15C16.1063 14 17 13.1063 17 12C17 10.8937 16.1063 10 15 10H12V14ZM15 18H12V20C12 21.1063 11.1063 22 10 22C8.89375 22 8 21.1063 8 20V16V8.5C8 7.11875 9.11875 6 10.5 6H15C18.3125 6 21 8.6875 21 12C21 15.3125 18.3125 18 15 18Z" fill="#0085FF"/>
</g>
</g>
<defs>
<clipPath id="clip0_28_5">
<rect width="28" height="28" fill="white"/>
</clipPath>
</defs>
</svg>
