<svg width="28" height="28" viewBox="0 0 28 28" fill="none" xmlns="http://www.w3.org/2000/svg">
<g clip-path="url(#clip0_100_2)">
<mask id="mask0_100_2" style="mask-type:luminance" maskUnits="userSpaceOnUse" x="0" y="0" width="28" height="28">
<path d="M28 0H0V28H28V0Z" fill="white"/>
</mask>
<g mask="url(#mask0_100_2)">
<path d="M23 5H6V22H23V5Z" fill="white"/>
<path d="M3.9999 0.000114918C1.79365 0.000114918 -4 -3.20618 -4 -0.99993L-9.63211e-05 24.0001C-9.63211e-05 26.2063 -2.70625 28.5001 -0.5 28.5001L38.5 34C40.7062 34 27.9999 26.2063 27.9999 24.0001V4.00011C27.9999 1.79386 33.7062 -3 31.5 -3L3.9999 0.000114918ZM11.9999 14.0001H14.9999C16.1062 14.0001 16.9999 13.1064 16.9999 12.0001C16.9999 10.8938 16.1062 10.0001 14.9999 10.0001H11.9999V14.0001ZM14.9999 18.0001H11.9999V20.0001C11.9999 21.1064 11.1062 22.0001 9.9999 22.0001C8.89365 22.0001 7.9999 21.1064 7.9999 20.0001V16.0001V8.50012C7.9999 7.11887 9.11865 6.00011 10.4999 6.00011H14.9999C18.3124 6.00011 20.9999 8.68762 20.9999 12.0001C20.9999 15.3126 18.3124 18.0001 14.9999 18.0001Z" fill="#0085FF"/>
</g>
</g>
<defs>
<clipPath id="clip0_100_2">
<rect width="28" height="28" fill="white"/>
</clipPath>
</defs>
</svg>
