<svg width="781" height="781" viewBox="0 0 781 781" fill="none" xmlns="http://www.w3.org/2000/svg">
<g clip-path="url(#clip0_146_2)">
<g filter="url(#filter0_d_146_2)">
<path d="M684 293.635C684 427.3 505.148 665.267 426.729 763.451C407.927 786.85 373.073 786.85 354.271 763.451C275.852 665.267 97 427.3 97 293.635C97 131.524 228.464 0 390.5 0C552.536 0 684 131.524 684 293.635Z" fill="#0B8E00"/>
</g>
<path d="M277.6 490.8C277.333 482.267 277.2 473.6 277.2 464.8C277.2 456.267 277.2 447.733 277.2 439.2C277.2 400 278 362 279.6 325.2C281.2 288.133 283.067 252.8 285.2 219.2C274.533 221.867 265.6 224.4 258.4 226.8L242.8 162.8C255.867 158.8 269.6 155.333 284 152.4C298.667 149.2 312.933 146.667 326.8 144.8C340.933 142.667 353.867 141.2 365.6 140.4C377.6 139.333 387.467 138.8 395.2 138.8C403.467 138.8 413.6 139.467 425.6 140.8C437.867 142.133 450.4 144.933 463.2 149.2C476.267 153.2 488.4 159.333 499.6 167.6C510.8 175.867 519.867 187.067 526.8 201.2C534 215.067 537.6 232.533 537.6 253.6C537.6 275.467 532.8 293.733 523.2 308.4C513.6 322.8 500.933 334.4 485.2 343.2C469.467 351.733 452.133 357.867 433.2 361.6C414.267 365.333 395.6 367.2 377.2 367.2C365.467 367.2 354.267 366.667 343.6 365.6C343.333 378.4 343.2 391.067 343.2 403.6C343.2 420.667 343.333 436.533 343.6 451.2C343.867 465.6 344.4 478.267 345.2 489.2L277.6 490.8ZM393.2 204.4C386.267 204.4 379.067 204.667 371.6 205.2C364.4 205.733 357.2 206.4 350 207.2C348.667 221.333 347.6 236.667 346.8 253.2C346 269.733 345.333 286.667 344.8 304C354.667 304.8 364.933 305.2 375.6 305.2C439.6 305.2 471.6 286.267 471.6 248.4C471.6 233.467 465.2 222.4 452.4 215.2C439.6 208 419.867 204.4 393.2 204.4Z" fill="white"/>
</g>
<defs>
<filter id="filter0_d_146_2" x="97" y="0" width="603" height="797" filterUnits="userSpaceOnUse" color-interpolation-filters="sRGB">
<feFlood flood-opacity="0" result="BackgroundImageFix"/>
<feColorMatrix in="SourceAlpha" type="matrix" values="0 0 0 0 0 0 0 0 0 0 0 0 0 0 0 0 0 0 127 0" result="hardAlpha"/>
<feOffset dx="8" dy="8"/>
<feGaussianBlur stdDeviation="4"/>
<feComposite in2="hardAlpha" operator="out"/>
<feColorMatrix type="matrix" values="0 0 0 0 0 0 0 0 0 0 0 0 0 0 0 0 0 0 0.1 0"/>
<feBlend mode="normal" in2="BackgroundImageFix" result="effect1_dropShadow_146_2"/>
<feBlend mode="normal" in="SourceGraphic" in2="effect1_dropShadow_146_2" result="shape"/>
</filter>
<clipPath id="clip0_146_2">
<rect width="781" height="781" fill="white"/>
</clipPath>
</defs>
</svg>
