<svg width="11" height="10" viewBox="0 0 11 10" fill="none" xmlns="http://www.w3.org/2000/svg">
<path d="M8.21366 4.0625C8.21366 4.95898 7.92197 5.78711 7.43059 6.45898L9.909 8.93359C10.1537 9.17773 10.1537 9.57422 9.909 9.81836C9.66429 10.0625 9.26688 10.0625 9.02217 9.81836L6.54377 7.34375C5.87033 7.83594 5.04028 8.125 4.14171 8.125C1.89235 8.125 0.0697632 6.30664 0.0697632 4.0625C0.0697632 1.81836 1.89235 0 4.14171 0C6.39107 0 8.21366 1.81836 8.21366 4.0625ZM4.14171 6.875C4.51191 6.875 4.87849 6.80225 5.22051 6.66091C5.56253 6.51957 5.8733 6.3124 6.13507 6.05124C6.39685 5.79007 6.60449 5.48003 6.74616 5.1388C6.88783 4.79757 6.96075 4.43184 6.96075 4.0625C6.96075 3.69316 6.88783 3.32743 6.74616 2.9862C6.60449 2.64497 6.39685 2.33493 6.13507 2.07376C5.8733 1.8126 5.56253 1.60543 5.22051 1.46409C4.87849 1.32275 4.51191 1.25 4.14171 1.25C3.77151 1.25 3.40493 1.32275 3.06291 1.46409C2.72089 1.60543 2.41012 1.8126 2.14835 2.07376C1.88658 2.33493 1.67893 2.64497 1.53726 2.9862C1.39559 3.32743 1.32267 3.69316 1.32267 4.0625C1.32267 4.43184 1.39559 4.79757 1.53726 5.1388C1.67893 5.48003 1.88658 5.79007 2.14835 6.05124C2.41012 6.3124 2.72089 6.51957 3.06291 6.66091C3.40493 6.80225 3.77151 6.875 4.14171 6.875Z" fill="#0085FF"/>
</svg>
